<svg xmlns="http://www.w3.org/2000/svg" xmlns:xlink="http://www.w3.org/1999/xlink" viewBox="0 0 82 77"><defs><radialGradient id="A" cx="187542.24%" cy="10438.2%" r="12271.049%" fx="187542.24%" fy="10438.2%" gradientTransform="matrix(-.9367 0 0 -1 3632.147 208.764)"><stop offset="0%" stop-color="#94bc42"/><stop offset="46%" stop-color="#93ba42"/><stop offset="68%" stop-color="#8db241"/><stop offset="84%" stop-color="#85a63f"/><stop offset="97%" stop-color="#78943c"/><stop offset="100%" stop-color="#758f3b"/></radialGradient><path id="B" d="M35.879 1.702c-4.379.323-9.69 1.598-13.212 3.171C11.075 9.858 4.329 18.528 2.058 31.376.314 41.582 2.305 56.028 13.099 65.91c9.145 8.34 21.713 9.589 28.374 9.589a49.82 49.82 0 0 0 11.707-1.323c13.801-3.674 21.143-10.199 25.335-22.58 3.386-10.114 2.988-25.159-5.52-36.004C62.822 2.874 46.515 1.5 39.976 1.5c-1.435 0-2.823.059-4.122.184"/><linearGradient id="C" x1="187182%" x2="187182%" y1="7550%" y2="-809%"><stop offset="0%" stop-color="#93b93d"/><stop offset="36%" stop-color="#b8d17f"/><stop offset="100%" stop-color="#fff"/></linearGradient></defs><g fill-rule="evenodd"><path fill="#787a7c" d="M35.685.21c-4.546.336-10.058 1.663-13.714 3.299C9.938 8.697 2.936 17.719.579 31.087c-1.811 10.62.256 25.651 11.46 35.934 9.493 8.678 22.538 9.978 29.452 9.978a51.59 51.59 0 0 0 12.151-1.376C67.968 71.8 75.588 65.011 79.939 52.128c3.514-10.524 3.102-26.179-5.73-37.464C63.651 1.43 46.725 0 39.937 0c-1.49 0-2.93.061-4.278.191"/><mask id="D" fill="#fff"><use xlink:href="#B"/></mask><g fill-rule="nonzero"><use fill="url(#A)" xlink:href="#B"/><path fill="url(#C)" d="M66.465 10.262c.404 6.285-11.042 14.422-25.454 14.856-14.393-.434-25.854-8.597-25.454-14.856.495-6.818 10.958-12.57 25.454-12.532s24.978 5.714 25.454 12.532" mask="url(#D)"/></g></g></svg>