<svg xmlns="http://www.w3.org/2000/svg" viewBox="0 0 90 90"><rect width="90" height="90" fill="#FFF"/><path fill="#000" fill-rule="nonzero" d="M58,26 C68.4934102,26 77,34.5065898 77,45 C77,55.4934102 68.4934102,64 58,64 L32,64 C21.5065898,64 13,55.4934102 13,45 C13,34.5065898 21.5065898,26 32,26 L58,26 Z M58,39 L32,39 C28.6862915,39 26,41.6862915 26,45 C26,48.2383969 28.5655749,50.8775718 31.7750617,50.9958615 L32,51 L58,51 C61.3137085,51 64,48.3137085 64,45 C64,41.7616031 61.4344251,39.1224282 58.2249383,39.0041385 L58,39 Z"/></svg>